<svg width="231" height="209" viewBox="0 0 231 209" fill="none" xmlns="http://www.w3.org/2000/svg">
<rect width="230" height="209" transform="translate(0.5)" fill="white"/>
<g clip-path="url(#clip0_7322_434)">
<g clip-path="url(#clip1_7322_434)">
<path d="M115.841 52.8022C120.145 52.8022 123.493 49.3069 123.493 45.0171C123.493 40.7273 119.985 37.3909 115.681 37.3909C111.377 37.3909 108.029 40.8862 108.029 45.0171C108.029 49.3069 111.536 52.8022 115.841 52.8022ZM115.681 40.5685C115.841 40.5685 115.841 40.5685 115.681 40.5685C118.232 40.5685 120.304 42.6339 120.304 45.176C120.304 47.7181 118.232 49.6246 115.681 49.6246C113.131 49.6246 111.218 47.5592 111.218 45.176C111.218 42.6339 113.29 40.5685 115.681 40.5685Z" fill="#00A0C1"/>
<path d="M139.434 51.8487C136.405 49.1477 132.419 47.7178 128.275 47.8767H126.999C126.68 49.1477 126.202 50.2599 125.564 51.2132C126.521 51.0543 127.318 51.0543 128.275 51.0543C131.303 50.8954 134.332 51.8487 136.723 53.5964V65.0357H139.912V52.3253L139.434 51.8487Z" fill="#00A0C1"/>
<path d="M124.609 37.7081C125.406 35.8016 127.638 34.8483 129.71 35.6427C131.623 36.4371 132.579 38.6614 131.782 40.7269C131.145 42.1568 129.71 43.1101 128.275 43.1101C127.956 43.1101 127.478 43.1101 127.159 42.9512C127.319 43.7456 127.319 44.54 127.319 45.1755V46.1288C127.638 46.1288 127.956 46.2876 128.275 46.2876C132.261 46.2876 135.449 43.1101 135.449 39.2969C135.449 35.3249 132.261 32.1473 128.435 32.1473C125.884 32.1473 123.652 33.4184 122.377 35.6427C123.174 36.1193 123.971 36.7549 124.609 37.7081Z" fill="#00A0C1"/>
<path d="M106.435 51.3721C105.798 50.4189 105.319 49.3067 105 48.0357H103.725C99.5804 47.8768 95.595 49.3067 92.5661 51.8488L92.0879 52.3254V65.0358H95.2762V53.5965C97.8268 51.8488 100.696 50.8955 103.725 51.0544C104.682 51.0544 105.638 51.2133 106.435 51.3721Z" fill="#00A0C1"/>
<path d="M103.725 46.1294C104.043 46.1294 104.362 46.1294 104.681 45.9705V45.0172C104.681 44.2228 104.681 43.4284 104.841 42.7929C104.522 42.9518 104.043 42.9518 103.725 42.9518C101.652 42.9518 99.8987 41.2041 99.8987 39.1387C99.8987 37.0732 101.652 35.3256 103.725 35.3256C105.319 35.3256 106.754 36.2788 107.391 37.7088C108.029 36.9144 108.985 36.12 109.782 35.4844C107.71 32.148 103.406 31.0358 100.058 33.1012C96.7104 35.1667 95.5945 39.4564 97.6669 42.7929C98.9422 44.8584 101.174 46.1294 103.725 46.1294Z" fill="#00A0C1"/>
<path d="M128.913 61.3816L128.594 60.905C125.406 57.4096 120.942 55.3442 116.16 55.5031C111.377 55.3442 106.754 57.4096 103.566 60.905L103.247 61.3816V73.4565C103.247 74.8864 104.363 76.1574 105.957 76.1574H126.362C127.797 76.1574 129.072 74.8864 129.072 73.4565V61.3816H128.913ZM125.725 72.9798H106.435V62.4938C108.986 59.9517 112.493 58.6807 116.16 58.6807C119.667 58.5218 123.174 59.9517 125.725 62.4938V72.9798Z" fill="#00A0C1"/>
</g>
</g>
<path d="M92 108.36V103.04H109.12V107.36L103.4 113.88C105.64 114.253 107.373 115.2 108.6 116.72C109.827 118.213 110.44 119.947 110.44 121.92C110.44 124.853 109.44 127.16 107.44 128.84C105.467 130.493 102.933 131.32 99.84 131.32C96.7467 131.32 93.6133 130.227 90.44 128.04L93 123.08C95.64 124.947 98 125.88 100.08 125.88C101.333 125.88 102.36 125.573 103.16 124.96C103.987 124.347 104.4 123.467 104.4 122.32C104.4 121.147 103.933 120.227 103 119.56C102.067 118.867 100.773 118.52 99.12 118.52C98.24 118.52 97 118.773 95.4 119.28V114.68L100.76 108.36H92ZM116.273 103.04H122.513V114.52L133.073 103.04H140.793L129.673 115.4C130.633 116.733 132.406 119.227 134.993 122.88C137.579 126.507 139.513 129.213 140.793 131H133.513L125.313 119.96L122.513 123.08V131H116.273V103.04Z" fill="#252B42"/>
<path d="M67.7417 170.792C68.9684 170.792 69.971 170.307 70.7497 169.336L72.3497 170.984C71.0804 172.413 69.5817 173.128 67.8537 173.128C66.1364 173.128 64.7177 172.584 63.5977 171.496C62.4884 170.408 61.9337 169.037 61.9337 167.384C61.9337 165.72 62.499 164.333 63.6297 163.224C64.771 162.115 66.163 161.56 67.8057 161.56C69.6404 161.56 71.1764 162.259 72.4137 163.656L70.8617 165.416C70.0724 164.435 69.091 163.944 67.9177 163.944C66.979 163.944 66.1737 164.253 65.5017 164.872C64.8404 165.48 64.5097 166.307 64.5097 167.352C64.5097 168.387 64.8244 169.219 65.4537 169.848C66.083 170.477 66.8457 170.792 67.7417 170.792ZM82.3143 173L81.2743 170.584H76.5863L75.5463 173H72.8903L77.7223 161.816H80.1383L84.9703 173H82.3143ZM78.9383 165.144L77.5303 168.392H80.3303L78.9383 165.144ZM89.8901 163.752C89.4741 163.752 89.1434 163.853 88.8981 164.056C88.6634 164.248 88.5461 164.509 88.5461 164.84C88.5461 165.16 88.6901 165.416 88.9781 165.608C89.2767 165.8 89.9541 166.029 91.0101 166.296C92.0767 166.552 92.9034 166.941 93.4901 167.464C94.0767 167.987 94.3701 168.749 94.3701 169.752C94.3701 170.755 93.9914 171.571 93.2341 172.2C92.4874 172.819 91.5007 173.128 90.2741 173.128C88.5034 173.128 86.9087 172.472 85.4901 171.16L86.9781 169.336C88.1834 170.392 89.2981 170.92 90.3221 170.92C90.7807 170.92 91.1381 170.824 91.3941 170.632C91.6607 170.429 91.7941 170.163 91.7941 169.832C91.7941 169.491 91.6554 169.224 91.3781 169.032C91.1007 168.829 90.5514 168.627 89.7301 168.424C88.4287 168.115 87.4741 167.715 86.8661 167.224C86.2687 166.723 85.9701 165.944 85.9701 164.888C85.9701 163.821 86.3487 163 87.1061 162.424C87.8741 161.848 88.8287 161.56 89.9701 161.56C90.7167 161.56 91.4634 161.688 92.2101 161.944C92.9567 162.2 93.6074 162.563 94.1621 163.032L92.8981 164.856C91.9274 164.12 90.9247 163.752 89.8901 163.752ZM104.657 161.816V164.04H99.0892V166.344H104.097V168.472H99.0892V170.792H104.833V173H96.5932V161.816H104.657ZM110.762 163.752C110.346 163.752 110.015 163.853 109.77 164.056C109.535 164.248 109.418 164.509 109.418 164.84C109.418 165.16 109.562 165.416 109.85 165.608C110.149 165.8 110.826 166.029 111.882 166.296C112.949 166.552 113.775 166.941 114.362 167.464C114.949 167.987 115.242 168.749 115.242 169.752C115.242 170.755 114.863 171.571 114.106 172.2C113.359 172.819 112.373 173.128 111.146 173.128C109.375 173.128 107.781 172.472 106.362 171.16L107.85 169.336C109.055 170.392 110.17 170.92 111.194 170.92C111.653 170.92 112.01 170.824 112.266 170.632C112.533 170.429 112.666 170.163 112.666 169.832C112.666 169.491 112.527 169.224 112.25 169.032C111.973 168.829 111.423 168.627 110.602 168.424C109.301 168.115 108.346 167.715 107.738 167.224C107.141 166.723 106.842 165.944 106.842 164.888C106.842 163.821 107.221 163 107.978 162.424C108.746 161.848 109.701 161.56 110.842 161.56C111.589 161.56 112.335 161.688 113.082 161.944C113.829 162.2 114.479 162.563 115.034 163.032L113.77 164.856C112.799 164.12 111.797 163.752 110.762 163.752ZM125.736 161.816C127.73 161.816 129.261 162.307 130.328 163.288C131.394 164.259 131.928 165.613 131.928 167.352C131.928 169.091 131.405 170.467 130.36 171.48C129.325 172.493 127.741 173 125.608 173H121.784V161.816H125.736ZM125.864 170.792C127.005 170.792 127.88 170.504 128.488 169.928C129.106 169.352 129.416 168.515 129.416 167.416C129.416 166.317 129.106 165.475 128.488 164.888C127.88 164.291 126.941 163.992 125.672 163.992H124.28V170.792H125.864ZM142.741 167.352C142.741 166.349 142.421 165.496 141.781 164.792C141.141 164.088 140.351 163.736 139.413 163.736C138.485 163.736 137.701 164.088 137.061 164.792C136.421 165.496 136.101 166.349 136.101 167.352C136.101 168.344 136.421 169.192 137.061 169.896C137.701 170.589 138.485 170.936 139.413 170.936C140.351 170.936 141.141 170.589 141.781 169.896C142.421 169.192 142.741 168.344 142.741 167.352ZM143.589 171.464C142.458 172.563 141.066 173.112 139.413 173.112C137.759 173.112 136.367 172.563 135.237 171.464C134.106 170.355 133.541 168.979 133.541 167.336C133.541 165.693 134.106 164.323 135.237 163.224C136.367 162.115 137.759 161.56 139.413 161.56C141.066 161.56 142.458 162.115 143.589 163.224C144.719 164.323 145.285 165.693 145.285 167.336C145.285 168.979 144.719 170.355 143.589 171.464ZM155.323 161.816H157.819V173H155.323L149.995 165.992V173H147.499V161.816H149.835L155.323 169.016V161.816ZM168.742 161.816V164.04H163.174V166.344H168.182V168.472H163.174V170.792H168.918V173H160.678V161.816H168.742Z" fill="#737373"/>
<defs>
<clipPath id="clip0_7322_434">
<rect width="48" height="48" fill="white" transform="translate(91.5 30)"/>
</clipPath>
<clipPath id="clip1_7322_434">
<rect width="48" height="44.2105" fill="white" transform="translate(92 32)"/>
</clipPath>
</defs>
</svg>
