<svg width="231" height="209" viewBox="0 0 231 209" fill="none" xmlns="http://www.w3.org/2000/svg">
<rect width="230" height="209" transform="translate(0.5)" fill="white"/>
<g clip-path="url(#clip0_7322_446)">
<path d="M135.151 52.2822C134.575 52.2864 134.005 52.3962 133.468 52.6064L127.727 47.8217C127.869 47.3001 127.969 46.7589 127.969 46.1886C127.969 42.8103 125.303 40.095 121.985 40.095C118.667 40.095 116 42.8103 116 46.1886C116 47.1538 116.24 48.0532 116.627 48.8625L109.664 57.2424C109.385 57.1893 109.103 57.1607 108.819 57.1571C108.39 57.1571 107.986 57.2302 107.593 57.3374L101.458 51.0903C101.566 50.693 101.638 50.281 101.638 49.8447C101.638 47.1441 99.5024 44.9699 96.8501 44.9699C94.1978 44.9699 92.0625 47.1441 92.0625 49.8447C92.0625 52.5454 94.1978 54.7196 96.8501 54.7196C97.2786 54.7196 97.6831 54.6465 98.0757 54.5393L104.211 60.7864C104.096 61.1914 104.035 61.6104 104.031 62.032C104.031 64.7327 106.167 66.9069 108.819 66.9069C111.471 66.9069 113.607 64.7327 113.607 62.032C113.607 61.4543 113.492 60.9107 113.312 60.3964L120.285 52.0068C120.829 52.1676 121.391 52.2822 121.985 52.2822C122.929 52.2769 123.859 52.0421 124.697 51.5973L130.44 56.382C130.395 56.638 130.369 56.8971 130.363 57.1571C130.363 59.8578 132.498 62.032 135.151 62.032C137.803 62.032 139.938 59.8578 139.938 57.1571C139.938 54.4564 137.803 52.2822 135.151 52.2822Z" fill="#00A0C1"/>
</g>
<path d="M104.18 118.92V114.04H110.18V118.92H113.34V124.32H110.18V131H104.18V124.32H92.94V119.56L102.9 103.04H109.7L100.22 118.92H104.18ZM135.456 103.04V108.44H124.416V113.12C125.242 112.88 126.189 112.76 127.256 112.76C129.949 112.76 132.269 113.573 134.216 115.2C136.162 116.827 137.136 119.027 137.136 121.8C137.136 124.547 136.122 126.827 134.096 128.64C132.096 130.427 129.616 131.32 126.656 131.32C122.869 131.32 119.709 129.92 117.176 127.12L120.456 122.56C120.696 122.8 121.016 123.093 121.416 123.44C121.816 123.787 122.549 124.253 123.616 124.84C124.682 125.4 125.749 125.68 126.816 125.68C127.882 125.68 128.829 125.36 129.656 124.72C130.482 124.08 130.896 123.133 130.896 121.88C130.896 120.627 130.442 119.667 129.536 119C128.656 118.307 127.509 117.96 126.096 117.96C124.682 117.96 123.042 118.467 121.176 119.48L118.576 116.68V103.04H135.456Z" fill="#252B42"/>
<path d="M41.1903 161.816H43.6863V173H41.1903V168.6H36.7423V173H34.2463V161.816H36.7423V166.488H41.1903V161.816ZM54.5018 173L53.4618 170.584H48.7738L47.7338 173H45.0778L49.9098 161.816H52.3258L57.1578 173H54.5018ZM51.1258 165.144L49.7178 168.392H52.5178L51.1258 165.144ZM62.5077 161.816C64.225 161.816 65.473 162.152 66.2517 162.824C67.041 163.485 67.4357 164.509 67.4357 165.896C67.4357 167.272 67.0304 168.28 66.2197 168.92C65.4197 169.56 64.193 169.88 62.5397 169.88H61.0517V173H58.5557V161.816H62.5077ZM62.7317 167.72C63.5637 167.72 64.129 167.555 64.4277 167.224C64.7264 166.883 64.8757 166.392 64.8757 165.752C64.8757 165.101 64.6784 164.643 64.2837 164.376C63.8997 164.099 63.297 163.96 62.4757 163.96H61.0517V167.72H62.7317ZM73.4358 161.816C75.1531 161.816 76.4011 162.152 77.1798 162.824C77.9691 163.485 78.3638 164.509 78.3638 165.896C78.3638 167.272 77.9585 168.28 77.1478 168.92C76.3478 169.56 75.1211 169.88 73.4678 169.88H71.9798V173H69.4838V161.816H73.4358ZM73.6598 167.72C74.4918 167.72 75.0571 167.555 75.3558 167.224C75.6545 166.883 75.8038 166.392 75.8038 165.752C75.8038 165.101 75.6065 164.643 75.2118 164.376C74.8278 164.099 74.2251 163.96 73.4038 163.96H71.9798V167.72H73.6598ZM85.1498 173H82.6538V168.584L78.7818 161.816H81.4858L83.9018 165.976L86.3178 161.816H89.0218L85.1498 168.584V173ZM99.7792 170.792C101.006 170.792 102.009 170.307 102.787 169.336L104.387 170.984C103.118 172.413 101.619 173.128 99.8912 173.128C98.1739 173.128 96.7552 172.584 95.6352 171.496C94.5259 170.408 93.9712 169.037 93.9712 167.384C93.9712 165.72 94.5365 164.333 95.6672 163.224C96.8085 162.115 98.2005 161.56 99.8432 161.56C101.678 161.56 103.214 162.259 104.451 163.656L102.899 165.416C102.11 164.435 101.129 163.944 99.9552 163.944C99.0165 163.944 98.2112 164.253 97.5392 164.872C96.8779 165.48 96.5472 166.307 96.5472 167.352C96.5472 168.387 96.8619 169.219 97.4912 169.848C98.1205 170.477 98.8832 170.792 99.7792 170.792ZM109.422 170.12C109.838 170.632 110.398 170.888 111.102 170.888C111.806 170.888 112.361 170.632 112.766 170.12C113.182 169.597 113.39 168.888 113.39 167.992V161.816H115.886V168.072C115.886 169.693 115.438 170.941 114.542 171.816C113.646 172.68 112.499 173.112 111.102 173.112C109.705 173.112 108.553 172.675 107.646 171.8C106.75 170.925 106.302 169.683 106.302 168.072V161.816H108.798V167.992C108.798 168.888 109.006 169.597 109.422 170.12ZM122.178 163.752C121.762 163.752 121.431 163.853 121.186 164.056C120.951 164.248 120.834 164.509 120.834 164.84C120.834 165.16 120.978 165.416 121.266 165.608C121.564 165.8 122.242 166.029 123.298 166.296C124.364 166.552 125.191 166.941 125.778 167.464C126.364 167.987 126.658 168.749 126.658 169.752C126.658 170.755 126.279 171.571 125.522 172.2C124.775 172.819 123.788 173.128 122.562 173.128C120.791 173.128 119.196 172.472 117.778 171.16L119.266 169.336C120.471 170.392 121.586 170.92 122.61 170.92C123.068 170.92 123.426 170.824 123.682 170.632C123.948 170.429 124.082 170.163 124.082 169.832C124.082 169.491 123.943 169.224 123.666 169.032C123.388 168.829 122.839 168.627 122.018 168.424C120.716 168.115 119.762 167.715 119.154 167.224C118.556 166.723 118.258 165.944 118.258 164.888C118.258 163.821 118.636 163 119.394 162.424C120.162 161.848 121.116 161.56 122.258 161.56C123.004 161.56 123.751 161.688 124.498 161.944C125.244 162.2 125.895 162.563 126.45 163.032L125.186 164.856C124.215 164.12 123.212 163.752 122.178 163.752ZM133.523 163.976V173H131.027V163.976H127.859V161.816H136.691V163.976H133.523ZM146.884 167.352C146.884 166.349 146.564 165.496 145.924 164.792C145.284 164.088 144.495 163.736 143.556 163.736C142.628 163.736 141.844 164.088 141.204 164.792C140.564 165.496 140.244 166.349 140.244 167.352C140.244 168.344 140.564 169.192 141.204 169.896C141.844 170.589 142.628 170.936 143.556 170.936C144.495 170.936 145.284 170.589 145.924 169.896C146.564 169.192 146.884 168.344 146.884 167.352ZM147.732 171.464C146.602 172.563 145.21 173.112 143.556 173.112C141.903 173.112 140.511 172.563 139.38 171.464C138.25 170.355 137.684 168.979 137.684 167.336C137.684 165.693 138.25 164.323 139.38 163.224C140.511 162.115 141.903 161.56 143.556 161.56C145.21 161.56 146.602 162.115 147.732 163.224C148.863 164.323 149.428 165.693 149.428 167.336C149.428 168.979 148.863 170.355 147.732 171.464ZM161.659 165.96L158.635 172.072H157.147L154.139 165.96V173H151.643V161.816H155.019L157.899 167.96L160.795 161.816H164.155V173H161.659V165.96ZM175.073 161.816V164.04H169.505V166.344H174.513V168.472H169.505V170.792H175.249V173H167.009V161.816H175.073ZM186.65 165.528C186.65 167.32 185.94 168.477 184.522 169L187.354 173H184.282L181.802 169.432H180.074V173H177.578V161.816H181.818C183.556 161.816 184.794 162.109 185.53 162.696C186.276 163.283 186.65 164.227 186.65 165.528ZM181.898 167.272C182.751 167.272 183.332 167.133 183.642 166.856C183.951 166.579 184.106 166.141 184.106 165.544C184.106 164.936 183.946 164.52 183.626 164.296C183.306 164.072 182.746 163.96 181.946 163.96H180.074V167.272H181.898ZM192.903 163.752C192.487 163.752 192.156 163.853 191.911 164.056C191.676 164.248 191.559 164.509 191.559 164.84C191.559 165.16 191.703 165.416 191.991 165.608C192.289 165.8 192.967 166.029 194.023 166.296C195.089 166.552 195.916 166.941 196.503 167.464C197.089 167.987 197.383 168.749 197.383 169.752C197.383 170.755 197.004 171.571 196.247 172.2C195.5 172.819 194.513 173.128 193.287 173.128C191.516 173.128 189.921 172.472 188.503 171.16L189.991 169.336C191.196 170.392 192.311 170.92 193.335 170.92C193.793 170.92 194.151 170.824 194.407 170.632C194.673 170.429 194.807 170.163 194.807 169.832C194.807 169.491 194.668 169.224 194.391 169.032C194.113 168.829 193.564 168.627 192.743 168.424C191.441 168.115 190.487 167.715 189.879 167.224C189.281 166.723 188.983 165.944 188.983 164.888C188.983 163.821 189.361 163 190.119 162.424C190.887 161.848 191.841 161.56 192.983 161.56C193.729 161.56 194.476 161.688 195.223 161.944C195.969 162.2 196.62 162.563 197.175 163.032L195.911 164.856C194.94 164.12 193.937 163.752 192.903 163.752Z" fill="#737373"/>
<defs>
<clipPath id="clip0_7322_446">
<rect width="48" height="48" fill="white" transform="translate(91.5 30)"/>
</clipPath>
</defs>
</svg>
